<?xml version="1.0" encoding="UTF-8"?>
<svg width="482px" height="324px" viewBox="0 0 482 324" version="1.1" xmlns="http://www.w3.org/2000/svg" xmlns:xlink="http://www.w3.org/1999/xlink">
    <!-- Generator: Sketch 64 (93537) - https://sketch.com -->
    <title>mdpi/1</title>
    <desc>Created with Sketch.</desc>
    <g id="Page-1" stroke="none" stroke-width="1" fill="none" fill-rule="evenodd" stroke-linecap="round" stroke-linejoin="round" stroke-opacity="0.75">
        <g id="画板" transform="translate(-359.000000, -662.000000)" stroke="#000000">
            <path d="M839.065653,795.311368 L839.028593,793.081345 L839.026772,793.041445 L838.877422,789.17017 L838.821356,785.559964 L838.842262,784.77939 L838.81225,784.60531 L838.755392,784.283784 L838.67557,781.477646 L838.455505,776.165225 L838.107708,767.725242 L837.761733,759.287689 L837.633606,756.203976 L837.447038,750.848111 L837.424944,750.23625 L837.088076,747.667889 L836.400797,742.409546 L835.296908,733.970575 L835.130849,732.704421 L834.702439,729.027378 L834.269356,725.941335 L834.219309,725.53049 L833.5995,720.615547 L833.126981,717.302259 L833.100611,717.117546 L833.08612,717.090102 L832.906678,716.74893 L831.890846,715.693616 L825.726328,708.652752 L823.228481,705.798512 L818.335653,700.210541 L813.329506,694.493655 L810.949967,691.774912 L803.56143,683.335638 L803.432273,683.18809 L796.168141,674.891705 L793.532268,671.881006 L788.782693,666.455165 L787.612126,665.119034 L783.633372,665.08035 L773.734714,664.986373 L771.448697,664.964094 L763.836452,665.09716 L755.05958,665.252505 L753.938744,665.24491 L744.04064,665.184352 L734.142456,665.124604 L724.243085,665.065159 L723.354668,665.059893 L715.405555,664.92227 L714.34411,664.833863 L714.313702,664.831433 L710.448267,664.81685 L704.445373,664.835078 L694.545843,664.865661 L688.925034,664.882776 L684.647423,664.887434 L675.317022,664.900396 L674.74916,664.897459 L664.851056,664.88156 L654.952873,664.867383 L645.054531,664.853003 L636.850589,664.837306 L635.156348,664.8448 L630.018669,664.858978 L625.282951,664.793862 L625.259036,664.794065 L620.582947,664.83599 L615.359111,664.799533 L605.460927,664.730367 L602.018122,664.707683 L595.562348,664.742519 L595.529247,664.742621 L587.232496,664.580794 L585.662027,664.540996 L576.716325,664.304738 L575.763448,664.286003 L565.865423,664.089746 L561.177297,663.997997 L555.965181,663.785232 L551.695013,663.612267 L546.067869,663.346641 L542.523385,663.181067 L539.341428,663.075242 L536.169765,663.04871 L530.267598,663 L526.999721,664.507577 L526.271185,664.829407 L522.567691,666.455874 L518.115706,668.418448 L516.372923,669.345456 L514.074711,670.576268 L506.473948,674.786285 L506.275739,674.894135 L497.158197,679.951563 L497.37169,681.379443 L497.710617,683.334017 L499.168242,691.772279 L499.195958,691.933802 L500.269598,697.868514 L500.419106,698.982767 L500.685813,700.210642 L501.108997,702.153368 L501.43177,703.3698 L501.378476,703.976902 L501.394393,704.297314 L501.557126,704.572257 L501.828822,704.850339 L502.170758,705.12437 L502.458213,705.558101 L502.461222,705.631723 L502.414501,705.685598 L502.247017,705.723776 L501.666089,705.266956 L501.560056,705.239613 L501.436521,705.264627 L501.297704,705.461188 L501.240688,705.825955 L501.491162,706.458374 L500.992511,706.61615 L500.814653,706.719443 L500.839677,706.831446 L501.075659,706.880156 L501.199193,706.855143 L501.298337,706.898992 L501.33904,707.10568 L501.437155,707.250088 L502.064804,707.621843 L502.288037,707.614349 L502.491314,707.524221 L502.627202,707.318545 L502.667271,707.072261 L502.772434,706.919245 L502.852493,706.893827 L502.924238,706.894333 L503.038112,706.964613 L503.201398,707.199758 L503.513877,707.171605 L503.759045,707.269633 L503.986237,707.472574 L504.044441,707.604729 L504.032008,707.785391 L503.668374,708.077448 L503.499385,708.277149 L503.450288,708.477153 L503.449101,708.562623 L503.733467,708.45376 L503.785969,708.513407 L503.749463,708.650018 L503.646122,709.03433 L503.642558,709.293981 L503.719926,709.495403 L503.81519,709.59181 L503.964302,709.655711 L504.071523,709.604266 L504.206857,709.441225 L504.421062,709.341273 L504.641919,709.274639 L504.994467,709.29469 L505.354696,709.515353 L505.538255,709.921843 L505.536196,710.310611 L505.225381,710.460184 L504.694421,710.880649 L504.641048,711.386483 L505.581492,712.772437 L505.340917,713.160395 L504.599157,714.136721 L504.304259,714.45369 L503.790879,714.741291 L503.531773,715.500194 L503.598371,716.022737 L503.579287,716.697283 L503.930647,717.08757 L503.954166,717.113495 L504.20456,717.793206 L504.765928,718.003236 L505.040475,718.344104 L505.209226,719.020069 L505.032081,719.967735 L504.957644,720.777576 L504.83015,721.191661 L504.8136,722.141758 L504.734649,723.248921 L504.612936,724.050357 L504.404195,724.946073 L504.381863,725.528668 L504.367134,725.915917 L504.255003,726.385699 L504.283907,727.02065 L504.173677,727.592713 L504.027653,729.016238 L503.916709,729.687544 L503.766964,730.179707 L503.19934,730.327153 L502.207423,730.724124 L501.965818,730.759973 L501.545485,730.693743 L501.182722,730.567158 L500.981504,730.603514 L500.393449,730.819923 L499.346258,730.969598 L498.880312,731.140234 L498.277924,731.069549 L497.634042,731.0976 L496.575844,731.346112 L496.379852,731.391278 L496.078064,731.385202 L495.898939,731.282921 L495.795598,731.41943 L495.731772,731.596244 L495.608555,731.73326 L494.227505,732.019342 L492.876151,732.450643 L489.794288,733.557401 L488.860812,733.968448 L488.718352,734.030728 L488.089277,734.355394 L486.737131,735.436936 L486.677265,735.4899 L485.772851,736.288196 L485.202456,736.651849 L484.709982,737.077985 L484.016289,737.458348 L483.120666,737.834356 L481.194402,738.346874 L477.923516,738.691894 L477.355179,738.797517 L476.777419,737.982815 L476.744239,737.936536 L476.448231,739.299199 L475.820899,739.320161 L474.578113,739.598547 L470.551291,740.103064 L468.491674,740.439274 L466.879235,740.780953 L465.341313,741.109871 L464.176448,741.444562 L461.137743,742.055209 L459.933125,742.218858 L459.188435,742.237187 L458.920382,742.385849 L458.443983,742.366608 L457.948104,742.407115 L457.127155,742.474762 L456.980894,742.503624 L456.382782,742.623221 L455.598577,742.713552 L455.026518,742.674969 L453.769795,742.407014 L453.15735,742.276479 L452.070327,742.12316 L448.590541,741.702695 L447.082315,741.522741 L446.940171,741.505931 L444.768898,741.330129 L444.673951,741.254887 L443.150441,741.006173 L442.121226,740.908449 L440.924131,740.662064 L439.760058,740.65538 L437.512843,740.157547 L437.183419,740.159673 L436.27267,740.16899 L435.547777,740.446869 L434.744092,740.911285 L433.672511,741.37327 L433.533139,741.419752 L431.108304,742.235466 L430.725348,742.408027 L430.494592,742.511826 L429.632703,742.992343 L428.809775,743.211082 L428.239379,743.058167 L427.839002,742.81158 L427.578313,742.406204 L427.501025,742.285796 L427.284364,742.094197 L427.160989,741.984827 L427.006491,742.094501 L426.761244,741.850141 L425.887477,741.433625 L424.558612,740.939133 L422.356614,740.196636 L421.767292,739.930099 L421.523708,739.629839 L421.124201,739.382238 L420.593479,739.192462 L420.023321,738.887949 L419.475494,738.510827 L419.269366,738.210466 L418.892032,737.834255 L418.66872,737.346649 L418.522855,736.747851 L418.015572,735.976898 L417.617491,735.805451 L417.385785,735.65122 L417.050738,735.427417 L416.670237,735.367264 L415.837647,734.893836 L415.101193,734.402585 L414.237008,733.97017 L414.193137,733.948094 L413.319924,733.546363 L412.35311,733.222002 L411.503416,732.691053 L411.169082,732.017013 L410.808773,731.826123 L410.578968,731.898327 L409.912754,731.948657 L409.417429,731.868149 L407.487681,731.012333 L407.351556,730.951369 L406.707673,730.721592 L406.482461,730.438852 L405.835252,730.488878 L405.665947,730.300621 L405.500126,729.869016 L405.18448,729.211382 L405.074883,728.891982 L405.193824,728.500784 L405.255433,728.109281 L404.934719,727.900365 L404.365749,727.726286 L403.724241,727.365468 L403.250931,727.043233 L402.94851,726.928597 L402.53372,726.701149 L402.194951,726.39694 L401.402985,726.036021 L401.240015,725.527655 L401.180703,725.339904 L401.207468,724.742321 L401.088527,723.694703 L400.603101,723.148463 L399.262991,722.235026 L398.22174,721.869144 L397.589181,721.87998 L397.445375,721.882613 L397.101142,721.819523 L396.854865,721.836637 L396.123479,722.35118 L395.782651,722.348446 L395.78859,721.919069 L396.044686,721.191458 L395.895099,721.059607 L395.493771,721.337082 L395.173532,720.99591 L394.852739,720.918642 L393.414832,720.321768 L393.097919,719.983432 L392.744817,719.456737 L392.457916,719.678514 L392.132688,719.748186 L391.586049,719.53846 L390.360922,718.888623 L389.548209,718.617629 L389.242778,718.670795 L388.560014,718.56892 L388.09098,718.171442 L387.690998,717.952805 L387.600565,717.903487 L387.062874,717.989059 L387.027476,718.102175 L386.717532,718.387042 L386.50697,718.581882 L386.158223,718.988777 L385.661393,719.13116 L385.301877,719.147059 L385.08878,719.368228 L384.925731,720.076092 L384.940222,720.356301 L385.46651,720.812614 L385.50072,721.056367 L385.300452,721.707419 L384.800771,721.98064 L384.263952,722.367687 L383.723172,722.846077 L383.395094,723.237073 L382.625222,723.729742 L381.959008,723.835263 L381.465663,723.829288 L380.588253,723.928734 L379.691046,724.141295 L379.196671,724.135523 L378.742999,723.99871 L378.064749,723.559612 L377.792736,723.429583 L377.460302,723.270491 L376.9295,723.207503 L376.220445,723.458242 L375.930061,723.791009 L375.565872,723.896936 L375.038713,723.666146 L373.728062,723.573587 L372.54055,723.968127 L371.799819,724.052179 L370.577938,724.277298 L370.371731,724.162663 L369.255884,723.810453 L368.693407,723.448419 L368.326051,723.703615 L367.893919,723.624221 L367.777591,723.602954 L367.174649,724.321552 L365.701186,723.719919 L365.695801,724.019369 L365.464491,724.202765 L365.105608,724.085092 L364.936461,723.96995 L364.921653,723.745439 L364.829477,723.594549 L364.522938,723.721539 L364.383724,724.055724 L364.221467,724.63285 L363.884836,725.33798 L363.597936,725.446235 L363.274688,725.422336 L363.182512,725.528971 L362.748242,726.029843 L362.310804,726.155719 L361.798215,726.052932 L361.612914,725.941031 L360.964518,725.947614 L360.288959,726.535981 L360.049018,727.055689 L360,727.652968 L360.115457,728.57076 L360.124801,729.075581 L361.207785,730.17596 L361.56746,730.313279 L362.232644,731.312289 L362.413036,731.858225 L362.619956,733.020073 L362.574581,733.393246 L362.044255,733.968448 L361.661061,734.389926 L361.581476,734.593272 L361.611172,735.043004 L362.197089,736.208396 L362.238821,737.03201 L362.228606,737.536628 L362.556605,738.364596 L362.829964,738.90881 L363.729943,739.745284 L364.307149,740.482415 L364.536479,741.515146 L364.558256,742.356177 L364.576707,742.40752 L364.830111,743.107485 L364.715683,744.077025 L364.726294,744.526453 L364.836208,744.771218 L365.005989,744.867423 L366.13704,744.88403 L366.776251,745.136998 L367.226517,745.498525 L367.672428,746.102488 L367.893444,747.227373 L367.970336,747.621407 L368.443488,748.899714 L369.060843,749.63816 L369.632822,750.080601 L370.150241,750.569523 L370.237586,750.846288 L370.439042,751.48853 L370.486,752.012289 L370.661324,752.892511 L370.710421,753.475207 L370.519735,754.386012 L370.381867,754.645967 L370.370781,756.384334 L370.875213,757.027791 L372.455659,758.3382 L373.056147,758.963834 L373.497386,759.283436 L374.056458,759.687698 L375.024539,760.112821 L376.547732,760.469589 L377.135628,760.77795 L377.793052,761.188896 L378.328922,761.524296 L380.739186,762.676928 L381.120321,762.794805 L381.646213,763.249296 L382.197524,763.519479 L383.741782,764.919712 L385.69196,766.15903 L386.846451,767.089583 L387.342726,767.208573 L387.691077,767.33374 L388.78491,767.725445 L390.90083,768.483234 L391.907555,768.980662 L394.055943,769.82625 L395.178679,770.323173 L395.878232,770.911034 L396.581348,771.33079 L397.207888,771.578086 L397.589656,771.788927 L398.636213,772.362711 L399.298072,772.853456 L400.16495,773.94867 L400.564853,775.710836 L400.859513,776.162896 L400.920093,776.255658 L401.527786,776.76777 L402.149892,777.40819 L402.657175,778.180055 L403.32711,779.624745 L403.851656,780.658894 L404.223447,781.634105 L404.037828,782.774282 L404.03276,783.146847 L404.324016,784.440446 L404.390931,784.602272 L404.697628,785.342643 L405.203089,786.413856 L405.714173,787.167493 L405.748936,787.410435 L405.766279,787.597578 L405.592222,787.670694 L405.149162,787.684466 L404.862024,787.588059 L404.574331,787.56659 L404.150751,787.654896 L403.728755,787.65125 L403.439717,787.760924 L403.320617,787.945637 L403.22274,789.665472 L402.993805,791.121808 L402.833448,791.681618 L402.446691,791.977624 L402.213164,792.067449 L402.266537,792.441229 L402.456669,792.725489 L402.613462,793.040331 L402.68101,793.175828 L402.752122,793.625357 L402.281583,794.33079 L402.260123,794.517731 L402.625816,794.522085 L403.027619,794.618999 L403.506552,794.90498 L403.885707,795.32028 L404.260507,796.071385 L404.488966,796.241819 L404.933056,796.134982 L405.415552,796.084044 L405.569099,796.123032 L405.932496,796.31372 L406.236897,796.597675 L406.64258,796.450938 L406.931856,796.398076 L407.201652,796.401013 L407.48776,796.611448 L408.518005,797.368224 L409.359701,797.788081 L409.875931,798.205407 L410.700443,798.419082 L411.297921,798.423943 L411.568747,798.37098 L412.087749,798.52673 L413.340117,799.73263 L414.396098,800.114512 L415.297423,800.346821 L415.914381,800.33396 L416.473295,800.244945 L416.917939,800.080385 L417.092866,799.9139 L417.386577,800.115322 L417.589538,800.254465 L417.947787,800.968303 L418.132296,801.479504 L418.191213,801.643153 L418.765726,801.928426 L419.264694,802.119518 L419.918475,802.123873 L420.981899,801.759105 L421.271651,801.80022 L421.71091,802.1021 L422.050708,802.74019 L422.427805,803.679148 L422.848613,803.980724 L423.760629,805.278271 L426.244934,807.633969 L426.161707,808.182639 L426.146107,808.705385 L425.909016,809.186408 L425.81494,809.387526 L425.783581,809.607784 L425.745017,809.917665 L425.721498,810.110074 L425.941008,810.612262 L426.177466,811.477091 L426.584654,812.600357 L426.930312,813.765142 L427.133985,814.630579 L427.285156,815.171249 L427.324038,815.313024 L427.40196,816.035977 L427.464677,816.679231 L427.354921,817.482084 L427.284602,817.729685 L427.229724,817.923816 L426.835682,818.204227 L426.271067,818.306204 L425.76806,818.345496 L425.39239,818.164834 L424.935471,818.024071 L424.402532,818.025286 L424.009835,818.044325 L423.727686,818.165644 L423.58966,818.358458 L423.554659,818.407776 L423.194192,818.529196 L422.910301,818.607577 L422.690869,818.728795 L422.35218,819.025916 L422.138133,819.247794 L421.585,819.828161 L420.978336,821.025352 L420.475726,821.895751 L420.595776,822.417282 L420.619532,823.69093 L420.237526,824.881943 L419.766037,825.678619 L418.597846,826.795808 L418.238013,827.14093 L417.868915,827.683828 L417.387131,828.936716 L417.319188,829.113328 L416.921898,829.862408 L416.448905,831.861034 L415.614098,834.797301 L415.453266,835.132701 L415.38065,835.235893 L415.1864,835.516 L414.493024,835.950542 L414.274226,836.219915 L414.198047,836.59886 L413.765835,837.515538 L413.496436,837.889015 L413.294821,838.079297 L412.544192,838.610955 L412.046096,838.824934 L411.726886,839.109902 L411.433809,839.305856 L410.845675,840.103848 L410.351459,840.481983 L409.79896,841.015463 L409.596633,841.268735 L408.961857,841.695883 L408.552056,841.875735 L407.930583,842.551598 L407.487364,842.96062 L407.48491,842.962949 L407.132045,843.488632 L406.896776,843.67537 L406.81244,843.742207 L406.585327,843.98049 L405.737375,844.957221 L405.151379,845.368875 L404.513752,845.995927 L403.614961,846.779742 L402.99333,847.521936 L402.141973,847.685889 L397.590369,851.258828 L397.249462,851.519593 L396.547534,852.113226 L393.06751,855.032886 L392.760575,855.727179 L392.051995,856.472917 L391.327894,857.145033 L390.27421,857.817251 L389.13041,858.458379 L388.854279,858.677118 L389.002124,858.864768 L389.056448,859.169281 L389.054626,859.2986 L388.854121,859.570505 L388.849844,859.801193 L389.055893,860.036236 L389.278809,860.19867 L389.78918,860.263482 L389.973927,860.021552 L390.096511,859.922512 L390.39719,859.927272 L390.665719,860.018211 L391.126676,860.28566 L391.517076,860.452043 L391.697864,860.43979 L391.835414,860.282925 L391.987377,860.19867 L392.447305,860.494677 L392.614155,860.554121 L392.746163,860.601008 L392.92695,860.574577 L392.953479,860.553412 L393.367952,860.219532 L393.609477,860.24019 L393.878006,860.344901 L394.157463,860.553108 L394.5325,860.830988 L395.173849,861.055904 L395.948868,861.502091 L396.802521,861.761034 L397.070258,861.908986 L397.590607,862.049344 L398.045941,862.169954 L398.119349,862.243677 L398.131465,862.445505 L398.218018,862.604698 L398.306472,862.692497 L398.727597,862.903844 L399.826339,862.892907 L399.944964,862.965921 L400.002138,863.126026 L400.022569,863.674291 L400.107459,863.992374 L400.492157,864.621755 L400.53484,864.781556 L400.666689,864.970826 L401.199549,865.395848 L401.285707,865.627651 L401.67484,865.850643 L401.719423,865.909277 L401.847154,866.358603 L401.994762,866.533696 L402.202632,866.666661 L402.578224,866.774106 L403.144897,867.084797 L403.643073,867.092392 L403.733586,867.079227 L403.854823,866.995174 L403.885628,866.952135 L403.938763,866.43263 L404.047252,866.275564 L404.141407,866.031001 L404.248233,865.90229 L404.354504,865.846795 L404.522304,865.83687 L404.82235,865.898644 L405.350776,865.775907 L405.787026,865.824921 L405.906601,865.884669 L406.262633,866.250854 L406.68162,866.343717 L407.160553,866.654104 L407.415778,866.599419 L407.48776,866.566507 L407.659283,866.48772 L407.95038,866.145434 L408.59846,866.155966 L408.93327,865.988367 L409.09917,865.990494 L409.321928,866.18027 L409.423685,866.397794 L409.436355,866.543114 L409.341408,866.844082 L409.37047,866.917097 L409.849403,867.227787 L409.892957,867.315789 L409.919643,867.56187 L410.023143,867.750938 L410.123633,868.0993 L410.106687,868.214644 L410.208523,868.447459 L410.560121,868.994206 L410.620304,869.087575 L411.204162,869.457912 L411.468256,869.834325 L411.557898,869.894377 L412.024319,870.046178 L412.549339,870.066128 L412.66931,870.111395 L412.863639,870.302386 L413.098592,870.768726 L413.51457,870.945033 L413.678649,871.106353 L413.721569,871.280838 L413.478222,871.392638 L413.133752,871.460994 L412.950905,871.588086 L412.828004,871.730468 L412.73472,871.916903 L412.700194,872.147997 L412.740738,872.466485 L412.843684,872.670033 L412.977512,872.830442 L413.408695,873.137791 L413.481865,873.283819 L413.556461,873.341643 L413.59946,873.516229 L413.597005,873.689296 L413.655684,873.819527 L413.955413,873.9691 L414.537687,874.38035 L415.096125,874.417211 L415.363703,874.491643 L415.56017,874.494175 L415.633974,874.581468 L415.967834,874.485871 L416.331864,874.273816 L416.799077,874.308551 L416.964106,874.36921 L417.142993,874.501365 L417.202226,874.588759 L417.216084,874.703496 L417.290442,874.762636 L417.38626,874.763953 L417.667459,874.767599 L417.879447,874.712711 L418.240151,874.832917 L418.767231,874.882234 L418.992443,874.942995 L419.339448,874.905627 L419.443898,874.979148 L419.591743,875.211355 L419.968206,875.186646 L420.134502,875.217431 L420.270152,875.278192 L420.344114,875.365688 L420.627847,875.556274 L420.749718,875.45612 L420.919736,875.112518 L421.011437,875.027047 L421.361847,875.004161 L421.932797,875.068162 L422.522277,874.917779 L422.56686,874.947046 L422.756754,875.381182 L422.877359,875.397688 L422.996696,875.470601 L423.129258,875.674049 L423.247407,876.06707 L423.184135,876.326418 L423.304106,876.356494 L423.74289,876.173604 L424.028603,876.176237 L424.22507,876.280138 L424.492807,876.528853 L424.579597,876.818986 L424.653084,876.949115 L424.820173,876.835087 L425.001039,876.837315 L425.376631,876.958634 L425.49478,877.104258 L425.520992,877.429936 L425.522497,877.449886 L425.411553,877.852831 L425.424857,878.011721 L425.631064,878.374564 L425.898247,878.694976 L426.122509,878.813055 L426.27273,878.845764 L426.681739,878.677052 L427.231466,878.294259 L427.284523,878.333652 L427.291095,878.338513 L427.364187,878.497098 L427.51314,878.599886 L427.920012,878.632696 L428.055266,878.692343 L428.131366,878.796143 L428.174841,878.955134 L428.030559,879.456917 L428.044417,879.558388 L428.136197,879.67758 L428.301067,879.765278 L428.284121,879.909889 L428.386829,880.156781 L428.446616,880.200832 L429.350317,880.355165 L429.410183,880.399419 L429.471159,880.371874 L429.666358,880.460382 L429.845879,880.592841 L430.06832,880.984849 L430.410652,881.335541 L430.711886,881.425973 L430.878182,881.398833 L430.969012,881.429315 L431.02769,881.545571 L430.676172,881.872464 L430.704046,882.10376 L430.748234,882.191458 L431.033233,882.382551 L431.39568,882.459414 L431.575359,882.576884 L431.797562,882.940741 L432.381341,883.482525 L432.60489,883.773367 L432.862333,883.821064 L433.01382,883.77924 L433.313153,883.781063 L433.551353,884.14421 L433.748057,884.233832 L434.094112,884.206085 L434.245758,884.237478 L434.426466,884.341278 L434.741241,884.66331 L435.311399,884.696222 L435.928992,885.110611 L436.359857,885.472847 L436.46597,885.517506 L436.725708,885.333806 L437.151664,884.916784 L437.184131,884.900176 L437.28874,884.846504 L437.531532,884.821693 L437.894374,884.957089 L438.438638,884.715159 L438.590363,884.761034 L438.846301,884.938152 L438.934913,885.155675 L438.949484,885.227981 L438.822069,885.746676 L438.820248,885.87316 L438.820248,885.876198 L438.880273,885.935136 L439.150227,885.963288 L439.149672,885.992453 L439.482106,886.170584 L439.739153,886.231648 L439.859282,886.319752 L439.58521,886.475097 L439.430475,886.61748 L439.380824,887.035616 L439.454786,887.181543 L439.562166,887.226607 L439.925404,887.17334 L440.619018,887.25162 L440.799647,887.383674 L440.874797,887.472283 L440.91843,887.602717 L440.991204,887.673503 L441.187592,887.762113 L441.596601,887.781961 L441.984863,888.086575 L442.271288,888.219945 L442.57466,888.209819 L443.04021,888.299745 L443.827345,888.278985 L444.067524,888.425317 L444.200482,888.672715 L444.305803,888.774185 L444.577816,888.762641 L444.866775,888.650537 L445.062609,888.694386 L445.197308,888.81125 L445.495216,889.276374 L445.705699,889.465948 L445.795737,889.509695 L446.051754,889.511417 L446.187008,889.556177 L446.558403,890.223433 L446.676156,890.49878 L446.900102,890.861725 L446.944685,890.963905 L446.941755,891.20948 L447.059983,891.484422 L447.05935,891.571007 L447.081127,891.592273 L447.104012,891.614653 L447.420846,891.631767 L447.79913,891.591766 L448.164111,891.508625 L448.316074,891.40837 L448.557995,891.352875 L448.950454,891.588425 L449.327946,891.590956 L449.566779,891.750656 L449.991784,891.77091 L450.187143,891.858203 L450.169642,892.118664 L450.319704,892.220742 L450.531296,892.164437 L450.788105,892.165551 L451.275828,891.999775 L451.442124,891.986206 L451.652607,892.031067 L451.929292,891.673287 L452.036039,891.630552 L452.760219,891.620729 L453.062323,891.683212 L453.635887,891.68625 L454.347793,891.794201 L454.46911,891.780834 L454.513772,891.852937 L454.540934,892.19978 L454.615688,892.330416 L455.233121,892.682423 L455.42753,892.872098 L455.502442,893.030785 L455.471083,893.189675 L455.484941,893.348565 L455.604516,893.551506 L455.754183,893.624824 L455.906383,893.641533 L456.572122,893.574899 L456.783001,893.677585 L456.980577,893.857032 L457.022785,893.895412 L457.127393,894.055112 L457.138558,894.309497 L457.140696,894.358713 L456.980577,894.648846 L456.910416,894.775431 L456.909782,894.861408 L456.980577,895.069413 L456.983586,895.078729 L457.14917,895.166833 L457.542104,895.285924 L457.678704,895.21453 L457.785134,895.229619 L458.959184,895.88857 L458.989197,896.003914 L458.941921,896.234907 L458.652724,896.594104 L458.651457,896.796539 L458.680836,896.839781 L458.711086,896.869655 L458.954037,896.639067 L459.075037,896.639675 L459.317117,896.75826 L459.648759,897.021354 L459.783142,897.179738 L460.368029,898.022389 L460.457592,898.268875 L460.547867,898.400119 L461.362322,898.724379 L461.680898,898.770456 L461.769906,898.828078 L461.843868,899.247327 L461.888609,899.305658 L461.873484,899.349001 L462.266022,899.612703 L462.521722,899.904355 L462.71621,900.353377 L462.788905,900.42548 L462.925822,900.426594 L463.398895,900.098384 L463.596471,900.028509 L463.776941,899.882379 L463.944821,899.73949 L464.221031,899.280543 L464.464536,899.166515 L464.542616,898.863623 L464.738925,898.704024 L464.952101,898.662808 L465.254918,898.738253 L465.314864,898.796077 L465.38938,899.028183 L465.403872,899.201858 L465.509272,899.405306 L465.96041,899.609057 L466.232185,899.871037 L466.367122,900.11803 L466.472364,900.219703 L466.880661,900.421429 L467.180469,900.570091 L467.361969,900.600167 L467.422469,900.672371 L467.649266,900.804526 L467.94749,901.239067 L468.021848,901.484744 L468.156706,901.731838 L468.216494,901.963337 L468.154885,902.078276 L468.154252,902.193823 L468.411773,902.26785 L468.593115,902.369725 L468.957303,902.747961 L469.194473,902.994245 L469.675307,903.429698 L470.189716,903.447622 L470.3865,903.492079 L470.582729,903.59355 L470.977326,903.654614 L471.583278,903.670817 L471.992683,903.732793 L472.188358,903.820491 L472.520158,904.124296 L473.202844,904.187386 L473.293198,904.215943 L473.79367,904.567343 L474.200779,904.641471 L474.35195,904.61261 L474.764285,904.269413 L475.294532,903.895531 L475.446812,903.634968 L475.496146,903.368735 L475.60321,903.205794 L475.754935,903.134198 L476.509523,903.062703 L476.739408,902.847609 L476.77924,902.870293 L476.829446,902.899053 L476.992574,902.911003 L477.542539,902.89561 L477.985441,902.823507 L478.254445,902.746037 L478.531209,902.666542 L479.128371,902.60092 L479.427545,902.61125 L480.02534,902.74624 L480.293631,902.806089 L480.585204,902.983005 L480.819523,903.260175 L481.182286,903.464028 L481.351037,903.49451 L481.81342,903.447116 L482.156544,903.522156 L482.623995,903.69178 L483.050584,903.97847 L483.460464,904.195183 L483.982,904.287438 L484.231445,904.373314 L484.918327,904.765525 L485.399477,904.948212 L485.599507,905.068823 L486.077252,905.463971 L486.35663,906.019325 L486.050645,906.684959 L486.278075,907.027954 L486.676948,907.547156 L487.273318,908.321755 L487.396693,908.664041 L488.767845,908.652902 L489.38124,908.716498 L490.462798,909.008859 L490.823502,909.081468 L491.198302,909.084202 L491.437531,909.145571 L491.99399,909.116102 L492.550923,908.987998 L493.001903,909.144963 L494.091142,909.638138 L495.332028,909.910651 L495.736444,909.854346 L496.105622,909.702849 L496.492854,909.359145 L496.57624,909.344461 L496.788228,909.306891 L497.571879,908.960048 L498.156132,908.527228 L498.363686,908.659383 L498.428858,908.881869 L498.808963,909.433476 L499.278235,909.783863 L499.435583,910.065692 L499.549535,910.428131 L500.073447,911.060955 L500.169266,911.154324 L500.316953,911.185008 L500.336908,911.188957 L500.746155,911.199894 L500.852822,912.083357 L500.634103,912.701598 L500.654613,912.833956 L501.156669,913.720659 L501.41324,913.951044 L501.562669,914.196112 L501.641066,914.453232 L501.790495,914.486853 L501.932717,914.461738 L501.892331,915.106715 L501.925432,915.331428 L502.13156,915.894377 L502.412917,916.243752 L502.673844,916.493277 L503.297929,916.767814 L503.701712,916.88569 L503.876719,916.987364 L504.723958,918.212403 L504.794515,918.478536 L504.185238,919.623979 L504.163303,919.665397 L503.981644,920.170826 L503.859298,920.823397 L503.912354,921.129429 L504.204006,921.485589 L504.845196,921.854407 L505.915826,922.212592 L506.350018,922.426774 L506.474502,922.522675 L506.812083,922.782124 L507.076811,923.056864 L507.312872,923.142334 L507.506568,923.129878 L508.343829,923.247451 L509.175072,923.734854 L509.593267,923.88868 L509.747052,923.918048 L510.263441,923.895566 L510.498077,923.84635 L510.882775,923.880984 L511.202935,924.015771 L511.373586,924.170813 L511.665951,924.335272 L511.862734,924.392894 L512.286631,924.412337 L513.694605,924.211725 L514.580013,924.28241 L515.300313,924.203927 L516.294764,923.872275 L516.373319,923.864376 L516.962799,923.80321 L517.852721,924.02448 L518.699881,924.42216 L519.49446,924.546416 L520.073408,924.547935 L522.448988,924.236637 L522.974087,924.133647 L524.106564,923.792273 L525.934713,923.368972 L526.27071,923.318642 L526.963373,923.212817 L527.68985,923.201272 L528.841807,923.377681 L529.746299,923.604319 L529.811709,923.745487 L529.788507,924.07157 L529.525838,924.87017 L529.48371,925.08739 L529.52172,925.298736 L529.593624,925.440208 L529.726265,925.588059 L530.621017,926.063715 L530.766803,926.218149 L531.480135,926.748996 L531.638512,926.999736 L531.695844,927.306983 L531.677473,927.793677 L531.628613,927.985378 L531.52353,928.06538 L530.634083,928.737799 L529.78629,929.497816 L529.460112,930.013878 L528.221364,931.545152 L527.936443,932.308207 L527.656432,933.420029 L527.535353,934.084044 L526.939458,935.535822 L527.052698,935.600837 L527.299687,935.458049 L528.830879,934.275136 L528.985376,934.250528 L529.194513,934.357164 L529.313613,934.517876 L529.408481,935.010545 L529.228564,936.111126 L529.206629,936.505667 L529.194671,936.733418 L529.209717,937.480574 L529.347426,938.957872 L529.644304,940.635783 L529.757544,940.894624 L530.107716,941.065362 L530.392162,941.081869 L530.59726,941.04764 L530.709075,941.075286 L530.85787,941.042374 L531.46105,941.172098 L532.154822,941.141009 L532.704628,941.044703 L533.421681,940.804698 L533.862604,940.723987 L534.041728,940.770267 L534.515989,941.05959 L535.297106,941.350026 L535.39134,941.428205 L535.695741,941.561069 L535.90472,941.611906 L536.17024,941.761073 L536.24246,941.801783 L536.600155,942.061637 L537.012965,942.167867 L537.083047,942.246958 L537.330353,942.308123 L537.931474,942.686562 L538.605686,943.177307 L538.85323,943.557164 L538.998383,943.840613 L539.035918,944.006895 L539.054765,944.911725 L539.058645,944.945447 L539.08256,945.136034 L539.193028,945.549106 L539.276255,945.843189 L539.347763,946.367757 L539.343566,946.727461 L539.277285,946.910149 L539.106237,947.211826 L538.705385,947.701761 L538.373268,947.945615 L537.94557,948.111998 L537.589379,948.37408 L537.345716,948.660972 L537.157801,949.003866 L537.084552,949.157388 L537.028961,949.449749 L537.061587,949.651576 L537.177123,949.932393 L537.327661,950.471442 L537.550181,950.693726 L537.959032,951.277536 L538.677748,951.500933 L538.837471,951.669443 L538.920461,951.897195 L539.974858,951.581239 L541.754147,951.496984 L543.395173,951.552479 L544.295231,951.81051 L545.466431,952.12839 L546.069848,952.204341 L546.140881,952.213759 L546.61427,952.128086 L547.446147,951.522706 L548.18957,950.946795 L548.976942,950.516203 L549.584715,950.199234 L550.304856,950.227589 L551.093258,950.401061 L551.881265,950.804209 L553.162457,951.550859 L554.331519,952.412346 L555.613504,953.188566 L555.843072,953.382798 L555.967081,953.487205 L556.604233,954.024027 L557.822233,955.178179 L558.653001,955.923107 L559.060031,956.012324 L560.476874,956.270659 L562.43703,956.330306 L563.99087,956.215366 L564.396315,956.042704 L565.588817,955.610897 L565.865423,955.431552 L566.059752,955.307802 L566.690964,955.725026 L567.479446,956.301849 L568.177414,956.445751 L569.236166,956.244633 L570.13662,955.956424 L571.982428,955.842497 L573.152915,955.699001 L574.59201,955.868928 L575.765031,956.205543 L575.896326,956.242709 L576.616468,956.069945 L577.787034,954.774018 L578.688122,954.170764 L580.28599,953.996685 L580.870798,954.06899 L581.297783,954.327527 L582.019429,954.70232 L582.649691,955.16471 L583.413703,955.565934 L584.023693,955.941538 L584.946082,956.171213 L585.664482,956.37375 L586.273838,956.544791 L587.781431,956.601704 L588.839392,956.343369 L589.671981,955.941234 L590.799152,955.740014 L591.56356,955.796927 L592.713062,956.517449 L593.346017,957.326277 L593.770864,957.784819 L594.2007,957.930442 L594.671555,957.814085 L595.146291,957.182476 L595.563378,956.301343 L595.820266,955.770698 L596.446806,955.222231 L596.944823,954.504139 L597.567088,953.383304 L597.844644,952.890635 L598.539049,950.961073 L598.90205,949.148173 L599.418201,948.226532 L599.802028,948.112403 L600.882874,948.284559 L602.525167,948.745734 L603.021205,948.803355 L603.448427,948.832216 L603.718698,948.803355 L604.169915,948.57297 L604.730887,948.198684 L605.461957,947.717559 L605.519289,947.679685 L606.014298,946.845033 L606.260891,946.211804 L606.577091,945.837923 L607.138855,945.663944 L607.813305,945.691995 L608.218988,945.952052 L608.398746,946.670852 L608.44325,947.706926 L608.059898,948.800418 L607.67813,951.104469 L607.723188,951.852232 L607.992826,952.340952 L608.623721,952.802228 L609.231732,953.205376 L609.515227,953.381582 L610.107479,953.750704 L610.963191,954.268083 L611.954237,954.355882 L612.96801,954.41401 L615.359348,954.389605 L615.647436,954.386567 L616.661526,954.1576 L617.742926,953.553232 L618.800332,953.524472 L619.338339,953.867872 L620.102826,954.759233 L620.667362,955.336765 L621.183197,955.623049 L621.612874,955.33636 L622.286532,954.673965 L622.850989,953.955874 L623.091247,953.383709 L623.259048,953.141273 L623.570576,953.024815 L624.343536,953.128716 L624.827062,953.385228 L624.860955,953.403254 L625.173116,953.953139 L625.258561,954.124789 L625.814782,955.244206 L625.925646,955.379297 L626.233927,955.383044 L626.588296,955.2677 L627.264409,955.301321 L627.891504,955.656569 L628.402587,955.409273 L628.571972,955.384361 L628.800035,956.080781 L629.306446,956.060021 L629.409391,955.780623 L629.692728,955.649886 L629.777143,955.650797 L630.081624,956.002906 L630.322278,955.898296 L631.095317,956.04078 L631.405974,955.936677 L631.685827,956.005944 L631.922443,956.141744 L631.941369,956.83938 L632.175213,957.175286 L632.584856,957.018625 L633.235707,956.025185 L633.503681,955.933841 L633.727627,955.975867 L634.198482,955.769888 L634.497103,955.545681 L635.156427,955.421526 L635.358913,955.38193 L635.544056,955.209673 L635.671074,955.157216 L635.866433,955.238838 L636.048566,955.457881 L636.549118,955.741432 L636.703219,955.742647 L636.998196,956.095971 L637.531769,956.086351 L637.90158,955.94569 L638.055998,955.933537 L638.237974,955.988425 L638.417732,956.163517 L639.053775,956.117744 L639.404185,956.160783 L639.623696,956.509753 L639.931106,956.754517 L640.309786,956.811329 L640.70763,956.534259 L640.889922,956.669756 L641.442104,957.410329 L641.76456,957.506433 L642.328859,957.433216 L642.783164,957.197261 L643.320063,957.096095 L644.248708,957.266124 L644.629526,957.270073 L645.055244,957.341568 L645.304609,957.383898 L645.675053,958.163055 L646.162063,958.607723 L646.387276,958.650357 L647.338727,959.193862 L647.719704,959.238319 L648.433193,958.456631 L648.580405,958.071407 L648.628552,957.617929 L648.519747,957.295998 L648.566468,956.975991 L648.780911,956.777708 L648.962332,956.711479 L649.736401,956.907635 L649.988696,956.840393 L650.114368,956.935483 L650.225232,957.09731 L650.279081,957.31139 L650.519893,957.247288 L650.691178,957.115842 L651.084271,957.050625 L651.564312,957.042524 L651.958592,956.964446 L652.255391,956.820038 L652.639931,956.530107 L652.897374,956.143466 L653.282626,955.786699 L653.3984,955.741837 L653.718322,955.884422 L653.912413,956.112174 L654.49928,956.464688 L654.864894,956.521601 L654.952477,956.682212 L655.098976,956.951281 L655.446614,957.341366 L655.952392,957.573776 L656.381594,958.138447 L656.413903,959.019276 L656.674592,959.474476 L656.702071,959.743343 L657.38634,960.202593 L657.519931,960.831063 L657.70151,961.034308 L657.842941,960.98175 L657.913498,960.893039 L658.085654,960.676123 L658.726528,960.200973 L659.629991,959.925423 L659.957515,959.715393 L660.243465,959.223534 L660.194052,958.635369 L660.295809,958.328932 L660.622066,958.090142 L661.299367,957.96224 L661.371112,957.829275 L661.553958,957.803249 L662.006442,957.807806 L662.061241,957.928113 L662.569236,957.730438 L662.626489,957.637372 L663.162042,957.668765 L663.539613,957.857833 L663.90103,958.408022 L663.926766,958.648635 L663.670195,958.901198 L663.608745,959.220698 L664.225228,959.653113 L664.223407,959.826585 L663.839025,960.210695 L663.819228,960.798556 L664.026544,961.146817 L664.850581,960.856582 L664.988765,960.807366 L665.666303,960.799163 L665.978069,960.587918 L666.216426,960.696073 L666.640402,960.70063 L666.670811,960.446447 L666.89832,960.274392 L667.278188,960.316925 L667.896413,960.710048 L668.27153,960.779112 L668.628671,960.768986 L668.84153,960.676933 L669.181091,960.640274 L669.580518,960.216265 L669.720919,960.108819 L670.525476,960.249886 L670.849199,960.197834 L671.058811,960.467207 L671.114323,960.695161 L671.240312,960.829848 L671.395363,960.884937 L671.58985,960.839164 L672.364236,961.34591 L672.755111,961.533458 L672.97771,961.823287 L672.993152,961.843743 L672.960764,962.270791 L673.04415,962.458846 L673.311886,962.635153 L674.749477,962.642039 L675.86279,962.649635 L676.146681,962.585633 L676.738379,962.561936 L678.664009,961.95848 L679.678177,962.058432 L679.931185,962.23403 L680.126939,962.516062 L680.26251,963.305548 L680.679676,963.894928 L681.045607,964.097869 L681.468791,964.166326 L682.344696,964.051184 L682.569592,963.985158 L683.151153,963.6132 L683.8142,963.522261 L684.292341,963.671125 L684.615985,963.89989 L684.648531,963.913156 L685.079713,964.088755 L685.828838,964.447041 L690.922647,968.248846 L691.209626,968.462826 L691.37814,968.823846 L691.531053,969.118233 L691.603748,969.373833 L692.049976,969.561382 L692.475536,969.576572 L692.783738,969.925035 L692.981393,969.925542 L693.504671,969.794096 L693.718639,969.446949 L693.988276,969.207045 L694.481938,968.994787 L694.546873,969.002787 L694.933868,969.050181 L695.385797,968.99742 L695.993332,969.026585 L696.317214,969.080561 L697.406849,968.671033 L697.903441,968.379482 L698.312292,968.433357 L699.624369,969.094131 L700.161584,969.23064 L700.782344,969.325123 L701.360659,969.272464 L701.526717,970.116027 L701.600838,970.262359 L701.681689,970.42378 L702.189526,970.760598 L702.612473,970.760395 L703.53019,970.535479 L703.783831,970.85741 L703.83958,971.098327 L703.625929,971.48507 L703.525438,971.912522 L703.524567,972.166401 L703.74978,972.554967 L703.9879,973.250881 L704.000649,973.47762 L703.418692,973.916617 L703.319548,974.050189 L703.431441,974.451717 L703.813051,974.627518 L704.447511,974.63562 L704.887483,974.642709 L705.196635,974.736078 L705.789441,975.152593 L706.182455,975.525766 L706.932133,975.36718 L707.216262,975.113301 L707.471883,974.338803 L707.628201,974.004923 L707.981304,973.965225 L707.996983,973.697371 L708.364814,973.618585 L708.900525,973.739195 L709.408837,974.22194 L709.604829,974.769901 L710.778246,974.65162 L711.189077,974.720381 L711.21703,974.840485 L711.456101,975.000489 L712.01937,975.119782 L712.404305,974.855372 L712.798902,974.801294 L713.066481,974.813852 L713.309273,974.968893 L714.312039,974.781446 L714.344902,974.782864 L714.80673,974.801497 L715.048414,974.857498 L715.225005,974.767471 L715.467163,974.783066 L715.778058,974.988539 L715.975238,975.179632 L716.220168,975.185202 L716.82612,974.689292 L717.3726,974.614657 L717.517436,974.480882 L717.946005,974.457591 L718.273846,974.746914 L718.482033,975.195328 L718.893656,975.347838 L719.238522,975.339838 L719.368787,975.219126 L719.611817,975.207784 L720.141193,975.363838 L720.412731,975.379839 L720.60215,975.138517 L720.6773,974.868739 L720.95256,974.600581 L721.571023,974.513592 L721.824664,974.77375 L722.066111,974.93831 L722.20382,975.345306 L722.615838,975.620553 L723.129772,975.680605 L723.599757,975.943699 L723.698268,976.08031 L723.734378,976.689741 L723.688686,976.892176 L723.742613,977.190208 L724.245144,977.764094 L724.365036,977.901008 L724.430921,978.361879 L724.600384,978.525832 L724.654866,978.701532 L724.696995,978.838143 L724.30026,979.577805 L724.511772,979.891634 L724.725186,980.043233 L724.868913,980.044954 L725.097768,979.964649 L725.286633,979.790873 L725.517389,979.712491 L725.677271,979.539222 L725.864948,979.473904 L726.609479,979.426611 L727.344587,979.013134 L727.532185,978.948728 L727.81964,978.938601 L728.115568,979.074199 L728.296751,979.550057 L728.29493,979.739834 L728.523389,979.877761 L728.85321,979.922319 L729.698945,979.780645 L730.226816,979.879482 L730.614444,979.897508 L731.001043,979.778417 L731.231086,979.753809 L731.718096,979.853861 L731.84369,980.180046 L731.9266,980.5597 L732.083394,980.628765 L732.55805,980.511901 L732.887396,980.56932 L733.054959,980.78654 L733.165348,981.070496 L733.156954,981.882767 L733.199003,981.964591 L733.46864,982.196495 L733.625592,982.26556 L733.794185,982.578276 L733.993661,982.743849 L734.142694,982.777673 L734.179913,982.786078 L734.538796,982.73514 L735.432439,982.323384 L736.162717,982.343435 L736.447321,982.521363 L736.530944,982.724912 L736.556363,983.09049 L737.007976,983.676629 L737.376362,984.044637 L737.587795,984.411531 L737.885782,984.806983 L738.170465,984.971341 L738.384829,985 L738.960055,984.828249 L739.174973,984.802527 L739.459815,984.925973 L739.645512,984.954429 L739.977154,984.850427 L740.179877,984.636144 L740.550717,983.243607 L740.681854,983.014235 L740.742908,982.650075 L740.920766,982.342423 L741.179396,982.140595 L741.212893,981.653496 L740.887031,981.408326 L740.731743,980.822794 L740.805546,980.593321 L740.636479,980.335188 L740.281951,980.089512 L739.917208,979.397649 L739.322106,978.7149 L739.319413,978.698393 L739.28172,978.471046 L739.155651,978.146381 L739.499567,978.06729 L740.473588,978.033973 L740.973743,978.322891 L741.015555,978.486034 L741.230235,978.446641 L741.31758,978.203091 L741.17219,977.038812 L741.714315,977.110105 L742.288987,976.980785 L742.817334,977.051876 L743.259444,977.367022 L743.716837,977.396896 L743.996848,977.528139 L744.04056,977.548697 L744.189435,977.618065 L744.38606,977.930882 L744.410292,978.418893 L744.807265,978.699203 L744.895798,978.761685 L745.324604,978.832573 L745.695444,978.997437 L746.108255,979.393396 L747.194485,979.712998 L747.863392,980.055992 L748.048535,980.354834 L748.191153,980.477875 L748.846835,980.603144 L748.960154,980.793528 L748.668265,981.618052 L748.650448,982.010263 L748.834007,982.199635 L749.046232,982.580301 L749.231613,982.744457 L750.002989,982.884308 L750.1464,982.939803 L750.417621,983.199454 L750.843656,983.349331 L751.448578,983.27419 L751.83581,983.139807 L752.227161,982.81899 L752.646702,982.634581 L752.813077,982.672658 L753.201735,982.676506 L753.346175,982.596909 L753.419583,982.421614 L753.608606,982.20723 L753.511125,981.827171 L753.340315,981.527721 L753.515401,981.231917 L753.757243,981.054495 L753.805469,980.459849 L753.939298,980.395645 L754.108841,980.314125 L754.88386,980.142577 L755.479675,979.323622 L755.882508,978.837029 L755.960429,978.700722 L756.421703,977.895337 L756.611835,977.436593 L756.724125,977.2455 L757.141924,977.127523 L757.226814,977.317806 L757.627746,977.483581 L757.826351,977.415833 L758.10272,976.943823 L758.332921,976.86453 L758.674857,976.810959 L758.904425,976.853188 L759.063119,976.74635 L759.179051,976.584827 L759.514811,975.842533 L759.829824,975.450929 L760.118466,975.182366 L760.347559,975.142669 L760.773594,975.441612 L760.872263,975.699238 L761.842244,976.340974 L762.256718,976.451356 L762.528572,976.479509 L763.14363,976.387659 L763.701752,976.416925 L763.83661,976.453685 L764.058734,976.513332 L764.543527,976.758603 L765.932733,976.91486 L766.417447,977.10575 L767.017222,977.448239 L767.130857,977.570368 L767.9016,977.979491 L768.63069,978.443299 L769.713515,978.700823 L769.786844,978.718241 L770.215255,978.732419 L770.2596,978.699811 L770.416077,978.584163 L770.746373,978.42345 L772.796646,977.984656 L773.15632,977.593457 L773.735348,977.151017 L773.773675,977.121953 L774.403462,977.137548 L774.890868,976.936228 L775.293067,976.721539 L775.710075,976.384215 L775.769704,975.93813 L775.957222,975.682529 L776.372646,975.697821 L777.200088,975.998587 L777.514308,976.228364 L778.027926,976.852985 L778.142037,976.934911 L778.314272,976.949291 L778.527527,976.800022 L778.571477,976.624524 L778.93036,976.612676 L779.302546,976.749894 L779.744102,976.749692 L779.875238,976.452774 L779.933996,976.169122 L779.863994,975.763037 L779.893373,975.601008 L780.224143,975.386219 L780.46551,975.425207 L781.025453,975.26571 L781.184781,975.036945 L781.257159,974.834308 L781.258347,974.442097 L781.531073,973.602179 L781.753276,971.859052 L781.640274,971.452866 L781.62792,971.1281 L781.772915,970.574771 L782.017449,970.291727 L782.065675,970.262967 L782.416481,970.047873 L782.8753,969.914503 L783.389392,969.927871 L783.635115,970.039974 L783.718342,970.078051 L784.061308,970.146711 L784.589258,969.903364 L785.11911,969.71541 L785.490504,969.430948 L785.848437,969.296363 L786.421208,969.229121 L786.835048,969.270135 L787.149189,969.243299 L787.62345,968.840252 L787.951925,968.732098 L788.41597,968.820505 L788.453347,968.827593 L788.738426,968.827695 L789.009726,968.732806 L789.654639,967.990917 L790.111478,967.624934 L790.428153,967.478298 L790.756786,967.05844 L791.056357,966.868462 L791.359649,966.925273 L792.027368,967.355966 L792.226448,967.395967 L792.414521,967.399309 L792.82749,967.181684 L793.069332,967.154038 L793.532348,967.321029 L793.712502,967.385232 L794.937946,968.439129 L795.425352,968.792251 L795.909194,968.938077 L796.452349,969.020914 L797.021953,969.019192 L797.994073,969.194994 L798.45408,969.169778 L799.223872,969.262742 L799.695599,969.507102 L800.150775,969.872173 L800.582353,970.142762 L800.913362,970.259726 L800.924844,970.263878 L801.0677,970.412438 L802.340737,970.372235 L803.255999,970.399375 L803.432906,970.470262 L804.270405,970.802624 L804.685512,971.019237 L804.986033,971.316762 L805.113923,971.534083 L805.156922,971.723556 L805.384906,971.856521 L805.728664,971.843356 L806.172596,971.654592 L806.385217,971.502893 L806.499882,971.354333 L806.456883,971.13772 L806.600056,971.00273 L806.986892,970.935387 L807.512942,970.946526 L807.985778,971.041414 L808.285982,971.282635 L808.486329,971.594034 L808.886786,972.514054 L808.94491,973.162879 L808.658644,973.44653 L808.515787,973.688055 L808.529724,973.947402 L808.887736,973.93363 L809.529164,974.02548 L809.901588,974.038847 L810.373869,974.294549 L810.63147,974.280777 L810.860325,974.402501 L811.302594,974.049177 L811.402926,974.035708 L812.032475,974.183661 L812.376312,974.101633 L812.976641,974.059911 L813.062482,973.992061 L813.330535,973.930794 L813.363161,973.9233 L813.69124,974.044316 L813.934507,973.908515 L814.048618,973.691802 L814.491995,973.339389 L814.734867,973.298173 L814.934501,973.29797 L815.263767,973.526228 L815.549322,973.6198 L815.720765,973.808361 L815.806447,973.82183 L816.048764,973.726132 L816.520333,973.441771 L816.791237,973.400048 L817.033475,973.398934 L817.392437,973.493013 L817.549468,973.600458 L817.620817,973.694738 L817.706341,973.613116 L817.790914,973.098877 L818.004486,972.881556 L818.193272,972.828897 L818.47843,972.881455 L818.607032,973.002571 L818.74973,973.23164 L818.793126,973.474784 L818.850062,973.582432 L819.123421,973.623648 L819.620805,973.255944 L820.019837,973.226678 L820.451336,973.307793 L820.879192,973.454227 L821.152947,973.414428 L821.522124,973.141511 L822.210432,972.965203 L823.055295,972.909303 L823.203616,973.010572 L823.229194,972.990622 L823.824059,972.526206 L824.055052,972.553751 L824.169242,972.634259 L824.226337,972.877404 L824.384081,973.093105 L824.498429,973.133207 L824.940698,973.090776 L825.556627,972.859581 L825.955817,972.519928 L826.184751,972.397393 L826.385098,972.437192 L827.001344,972.961963 L827.402593,973.163689 L827.760842,973.27083 L827.918665,973.419593 L828.332743,973.496962 L828.719025,973.401567 L828.988425,973.261818 L828.388412,972.956697 L828.029609,972.727426 L827.714834,972.325291 L827.628043,972.055107 L827.655601,971.676264 L827.698125,971.594844 L827.669063,971.229874 L827.596209,970.961109 L827.579184,970.554517 L827.723782,970.263271 L828.190995,969.320667 L828.474411,968.603183 L828.3428,967.778963 L828.184818,967.576224 L827.94163,966.956666 L827.682762,966.524859 L827.595655,966.025101 L827.60785,965.578003 L827.779293,965.483013 L827.878121,965.185488 L827.748885,964.754187 L828.060096,964.155997 L828.229164,963.317497 L828.183789,962.587659 L828.068253,962.128307 L828.050039,961.822072 L828.038003,961.614473 L827.924209,961.386923 L827.694957,961.198666 L827.422549,960.847975 L827.292838,960.414952 L827.249046,960.10406 L827.248096,959.834383 L827.361098,959.414627 L827.542994,958.224221 L827.49952,957.954341 L827.38438,957.630182 L827.397842,957.386936 L827.683079,957.305213 L827.995399,957.289618 L828.237716,957.221566 L828.479954,957.004751 L828.593748,956.705909 L829.033483,956.419016 L829.361561,956.310254 L829.588912,955.917841 L829.888324,955.741837 L830.013363,955.534946 L829.599444,954.768853 L829.525561,954.093092 L829.795594,953.660171 L829.844691,953.385228 L829.946924,952.791088 L829.920316,952.496905 L830.117734,952.236241 L830.216482,951.898208 L830.641962,951.330702 L830.755202,951.046139 L830.755202,950.836514 L830.755202,950.562179 L830.754014,950.35701 L830.767635,950.140802 L830.692406,949.476686 L830.477329,949.213187 L830.217749,948.721227 L829.957931,948.389574 L829.666042,948.083238 L829.44178,947.670976 L828.967677,947.144078 L828.621227,947.039671 L827.736136,947.031772 L826.199084,946.938909 L825.127028,946.98529 L824.821598,946.939517 L824.554099,946.91663 L824.268703,946.802501 L824.090212,946.573838 L824.036759,946.254033 L824.054181,944.944536 L824.072236,943.602836 L824.17922,940.953562 L824.144139,938.941771 L824.233306,938.530724 L824.375449,938.096385 L825.351845,936.504755 L825.663927,935.994364 L826.181108,935.08042 L826.574438,934.395645 L826.859597,933.893052 L827.289353,932.796927 L827.575224,929.781164 L827.751181,928.06781 L828.396727,924.433097 L829.397592,921.554958 L830.110923,919.725247 L830.173958,919.626409 L830.378977,919.30306 L830.557943,919.00675 L830.719409,918.59631 L830.93203,918.341925 L831.182821,917.611782 L831.3625,916.926198 L831.433928,916.195751 L831.541466,915.716449 L831.616933,915.297301 L831.666901,914.734048 L831.720828,913.88927 L831.756542,912.792537 L831.695567,911.377215 L831.644015,911.188856 L831.3644,910.154909 L831.13705,909.372512 L830.473607,907.671209 L830.31032,906.749974 L830.395923,906.170417 L830.671579,905.531314 L830.865433,904.513266 L830.909937,903.932696 L830.870501,903.272935 L830.717588,902.749987 L830.715054,902.741582 L830.559685,902.209823 L830.085979,900.166436 L829.961495,899.866278 L829.63112,899.387077 L829.256399,898.964283 L828.757986,898.483462 L828.194638,898.019857 L827.36292,896.716335 L827.198524,896.075612 L826.724897,894.773811 L826.582199,894.310105 L826.415744,893.77227 L826.150779,892.410215 L826.009427,891.429636 L825.974664,890.029707 L825.917489,889.069281 L825.527644,887.70682 L825.44798,886.886549 L825.451227,886.345372 L825.612455,885.870932 L825.620611,885.846425 L825.601844,885.426061 L825.396903,884.885391 L825.110161,883.864001 L824.757613,883.041705 L824.738529,882.660937 L824.636613,882.280169 L824.662508,881.320553 L824.792536,880.34038 L825.134631,878.982476 L825.224035,877.942656 L825.377344,877.431252 L825.817474,875.964384 L826.235669,875.545945 L827.110387,875.588376 L828.112123,875.513235 L828.467918,875.355257 L828.699228,875.036972 L828.721717,874.716863 L828.560727,873.375062 L828.796313,872.036804 L829.550268,871.078403 L830.238734,870.459149 L830.930526,870.004456 L831.43076,869.543382 L831.787901,869.046359 L831.80556,868.994206 L832.102122,868.10487 L832.336045,867.046315 L832.51026,865.386936 L832.804208,864.968801 L833.096652,864.757353 L833.126664,864.750568 L833.513026,864.661857 L834.188742,864.123719 L834.671476,863.839257 L835.066469,863.397931 L835.177333,863.075392 L835.281624,862.594571 L835.333335,862.040837 L835.273943,861.617334 L834.994645,860.859444 L834.856461,860.556754 L834.682562,860.179429 L834.682879,859.516427 L834.461072,859.002998 L834.522839,858.520962 L834.706715,857.887227 L834.831833,857.208529 L834.918703,856.882243 L835.341887,854.541229 L835.611841,853.362469 L835.648981,852.672226 L835.715261,852.117682 L835.724368,852.043149 L835.86184,851.901475 L835.982127,850.873199 L835.765546,849.973534 L835.899296,848.314156 L835.849961,847.946249 L835.856534,845.550247 L835.866195,843.762157 L835.869204,843.679218 L835.892882,842.928518 L835.975159,842.47909 L835.917588,842.207489 L835.985453,841.597046 L835.901513,840.584466 L835.937544,839.5649 L835.92234,837.428954 L835.952273,835.999657 L836.026077,835.796108 L836.069076,835.511747 L836.092754,835.237614 L836.138683,834.702615 L836.515067,833.01316 L836.793811,832.071266 L837.079048,831.347504 L837.360089,830.890076 L837.586489,830.543942 L838.014503,830.1733 L838.279152,829.904231 L839.251667,829.24052 L839.860786,828.458832 L839.955892,827.990063 L840,827.307718 L839.946548,826.949229 L839.940133,826.797429 L839.905449,825.981006 L839.885968,823.775793 L839.751744,821.665569 L839.786191,820.6698 L839.700667,819.362936 L839.676752,819.108551 L839.571035,818.729605 L839.393653,818.387927 L839.393336,818.359572 L839.273365,809.9205 L839.153157,801.480719 L839.065653,795.311368 Z M663.681282,812.816463 L658.301919,810.594338 L658.089931,810.520716 L655.962132,809.918981 L654.951685,809.633304 L645.054135,806.83628 L637.881862,804.806565 L635.155477,803.559753 L630.60704,801.478593 L625.397299,799.095654 L625.258323,799.113275 L616.268354,800.266313 L615.359111,799.837747 L611.69624,798.109405 L609.751209,793.138156 L609.478167,793.039116 L605.45974,791.573058 L604.110761,791.337509 L598.306234,791.011122 L595.563061,790.689089 L592.014777,790.275106 L588.622652,789.42972 L586.638898,789.000647 L585.661552,788.732793 L584.110009,788.305746 L583.898258,788.269289 L583.638203,788.232732 L583.376405,788.24377 L583.154994,788.318303 L582.952905,788.429799 L582.490601,788.698666 L581.836186,788.996394 L581.025849,789.501215 L580.157229,789.882996 L578.895437,790.443717 L577.588904,790.890005 L576.728995,790.983476 L576.161846,791.019527 L575.763764,790.993197 L575.085514,790.949146 L573.739782,790.798155 L572.271942,790.528478 L571.38495,790.129178 L570.826591,789.869426 L569.811472,789.142625 L568.122774,787.687808 L568.059423,787.628566 L567.70347,787.297217 L566.978736,786.663178 L566.058247,785.829337 L565.863918,785.635915 L565.616533,785.389125 L565.103074,784.878126 L564.854422,784.601563 L564.522938,784.233251 L563.954205,783.458348 L563.530467,782.648609 L563.349758,782.155636 L563.25489,781.669043 L563.280468,781.57861 L563.295039,781.399974 L563.262413,780.965331 L563.125259,780.413218 L563.020175,779.614719 L563.017404,778.980882 L563.051217,778.81774 L563.272945,778.556468 L563.37597,778.287804 L563.603796,777.93934 L563.600786,777.650018 L563.801767,777.132133 L564.146079,776.807265 L564.363769,776.506803 L564.468615,776.163099 L564.564512,775.848864 L564.703013,775.553566 L564.652491,775.232445 L564.556672,774.921654 L564.287589,774.373389 L564.256706,774.22898 L564.273098,774.10118 L564.344922,773.991 L564.733263,773.86401 L564.995219,773.855504 L565.409455,773.907961 L565.864235,773.870289 L566.098792,773.851352 L566.641947,773.945936 L567.019597,773.901783 L567.209175,773.921429 L567.403583,773.993735 L568.661574,774.931375 L568.809419,774.959325 L568.928835,774.930059 L569.046985,774.798613 L569.369362,774.159105 L569.661488,773.749679 L569.854234,773.589371 L570.419086,773.370531 L570.919558,773.075638 L571.244311,772.754517 L571.462475,772.042806 L571.460654,771.868625 L571.369112,771.650999 L570.738295,771.04329 L570.629807,770.778474 L570.630441,770.580596 L570.688248,770.47386 L571.146117,769.983115 L571.536596,769.922961 L572.652206,770.469201 L572.885099,770.633458 L573.027401,770.66637 L573.141512,770.679231 L573.431501,770.569355 L573.768607,770.565406 L574.018051,770.492493 L574.287688,770.327831 L574.694876,769.998912 L575.10048,769.42209 L575.296076,769.30391 L575.471083,769.232921 L575.763923,769.182793 L576.197639,769.10988 L576.469573,769.013878 L577.029753,768.894382 L577.34722,768.672301 L577.560951,768.394523 L577.617808,768.264393 L577.621609,767.723926 L577.622243,767.631164 L577.690503,767.369589 L577.808257,767.079051 L578.079319,766.692004 L578.456336,766.733524 L579.18796,767.042898 L579.710447,767.157128 L580.315844,767.128875 L580.450465,766.987403 L580.908888,765.548992 L581.002013,765.027259 L580.965824,764.544818 L580.832233,764.203747 L580.542323,763.957159 L580.15327,763.779434 L579.57345,763.580543 L578.859248,763.167572 L578.301681,763.095874 L577.818076,763.061241 L577.333758,763.190661 L577.11599,763.366766 L576.825684,763.696495 L576.146721,764.637478 L575.794648,764.993334 L575.763764,765.036575 L575.231063,765.785351 L575.00688,766.336351 L574.830606,766.816058 L574.248015,767.724938 L574.215072,767.77618 L573.744454,768.263684 L573.175326,768.659136 L571.966194,769.020967 L571.011813,769.239503 L569.933185,769.329632 L569.332301,769.315049 L568.903812,769.176211 L568.505968,768.87028 L567.308477,768.028743 L567.021894,767.723622 L566.386009,767.046949 L565.917687,766.450379 L565.864077,766.365719 L565.36994,765.586562 L564.927829,764.672517 L564.596979,763.939336 L564.183852,762.763108 L564.006707,761.981521 L563.931082,761.302316 L564.087084,759.750282 L564.204441,759.285259 L564.403046,758.503571 L564.658509,758.040573 L565.370415,756.974119 L565.863918,756.605402 L565.876272,756.596187 L566.884185,755.665736 L567.803485,755.012962 L569.738618,754.288896 L571.483936,753.968281 L574.547427,753.922002 L575.763527,753.960382 L575.818563,753.962104 L576.968382,754.057397 L578.209505,754.153095 L578.688834,754.25092 L579.14116,754.400898 L579.52079,754.582674 L580.10932,754.919694 L580.704502,755.289728 L581.439768,755.688623 L582.786925,756.389398 L583.145254,756.632846 L583.407051,756.812799 L583.880362,757.089768 L585.011096,757.962293 L585.662185,758.783476 L585.811297,758.972847 L586.203836,759.284347 L587.084492,759.982996 L588.026995,760.717088 L588.499831,761.124591 L588.711264,761.269505 L588.968152,761.356494 L589.082263,761.394267 L589.207856,761.388495 L589.425783,761.215529 L590.600468,760.864939 L591.087082,760.808735 L591.35078,760.67253 L591.958632,760.476475 L592.482385,760.37865 L593.051673,760.145632 L593.315687,760.108163 L593.778466,759.950691 L593.921956,759.635646 L594.146931,759.360906 L594.265476,759.289006 L594.529332,759.123129 L595.061718,758.218501 L595.364852,757.356609 L595.562823,757.220707 L597.034623,756.25704 L600.133116,755.60133 L603.30272,755.554645 L604.857668,755.887007 L605.460452,756.098049 L607.684861,756.8767 L610.061391,757.681781 L612.734087,758.550357 L615.080129,759.286069 L615.358635,759.373565 L616.236125,759.647697 L620.877846,760.397283 L625.257769,760.809444 L625.95748,760.875876 L632.525306,760.776026 L635.155477,760.928941 L642.058984,761.321861 L645.05469,761.632754 L653.222918,762.475101 L654.951527,762.688169 L659.917129,763.300841 L664.850185,764.678086 L670.760904,766.330376 L670.944146,766.376959 L670.637449,766.76755 L670.021361,767.725749 L669.972977,767.800889 L668.439806,769.78868 L667.786737,770.709207 L667.244453,771.753685 L666.740338,772.810721 L666.297516,773.905429 L665.199486,776.161073 L664.849868,776.881494 L664.331816,777.94167 L661.284162,784.601259 L660.679874,785.927466 L660.498849,786.118255 L659.776886,786.661659 L659.510733,786.792599 L659.00741,786.909259 L658.828681,787.127998 L658.665394,787.944118 L658.497435,788.297138 L657.446602,788.821504 L657.055331,788.97614 L656.762729,789.254324 L656.682749,789.448049 L656.516848,789.654434 L655.138649,790.223358 L654.952319,790.343664 L654.339003,790.737597 L653.930944,791.11158 L653.909008,791.748252 L654.055032,792.129931 L654.563265,792.747869 L654.951843,793.025546 L654.972987,793.040534 L655.77295,793.609761 L656.359421,793.960351 L656.944863,794.5073 L657.637684,795.311368 L657.924822,795.5854 L658.508838,797.011862 L659.575905,799.240974 L660.344985,801.147345 L660.40311,801.477884 L660.497503,802.00549 L661.567658,805.05457 L661.713602,805.65752 L661.896766,806.088011 L662.03685,806.896839 L662.158643,807.228795 L663.208525,808.955517 L663.909978,809.917766 L664.065267,810.12891 L664.849631,811.457243 L665.293641,812.208854 L664.850185,812.329566 L664.325798,812.469518 L663.887172,812.676611 L663.681282,812.816463 Z" id="1" transform="translate(600.000000, 824.000000) scale(1, -1) translate(-600.000000, -824.000000) "></path>
        </g>
    </g>
</svg>